<?xml version="1.0" standalone="no"?>
<!DOCTYPE svg PUBLIC "-//W3C//DTD SVG 20010904//EN"
 "http://www.w3.org/TR/2001/REC-SVG-20010904/DTD/svg10.dtd">
<svg version="1.0" xmlns="http://www.w3.org/2000/svg"
 width="129.000000pt" height="114.000000pt" viewBox="0 0 129.000000 114.000000"
 preserveAspectRatio="xMidYMid meet">

<g transform="translate(0.000000,114.000000) scale(0.100000,-0.100000)"
fill="#000000" stroke="none">
<path d="M486 1114 c-13 -12 -16 -39 -16 -125 0 -60 -3 -109 -6 -109 -3 0 -38
19 -77 42 -116 69 -124 72 -139 57 -8 -8 -33 -48 -57 -89 -24 -41 -57 -97 -73
-124 -38 -64 -32 -86 29 -117 27 -13 50 -26 53 -29 3 -3 19 -12 35 -20 52 -26
58 -36 30 -54 -13 -9 -29 -16 -35 -16 -5 0 -10 -3 -10 -8 0 -4 -15 -14 -32
-21 -56 -24 -98 -55 -98 -72 0 -16 58 -130 70 -139 4 -3 19 -27 33 -55 15 -27
33 -58 40 -67 15 -19 57 -24 73 -9 5 5 26 19 47 30 20 12 53 30 72 41 20 11
38 20 40 20 3 0 5 -47 5 -104 0 -57 3 -111 6 -120 5 -14 30 -16 174 -16 144 0
169 2 174 16 3 9 6 63 6 120 0 57 2 104 5 104 5 0 43 -21 121 -67 82 -49 89
-50 117 -6 14 21 36 58 50 83 102 179 102 179 60 201 -16 8 -30 16 -33 19 -5
5 -15 11 -89 52 -20 11 -40 22 -44 25 -12 7 24 31 146 97 47 25 56 56 28 92
-12 15 -21 31 -21 35 0 11 -99 179 -116 198 -12 13 -17 13 -41 0 -15 -8 -30
-16 -33 -19 -3 -3 -16 -11 -29 -19 -84 -47 -110 -61 -115 -61 -3 0 -6 52 -6
115 0 103 -2 115 -19 125 -11 5 -84 10 -165 10 -118 0 -147 -3 -160 -16z m272
-181 c-1 -133 5 -163 33 -163 10 0 19 4 19 8 0 5 16 14 35 22 19 8 35 16 35
19 0 4 15 12 33 20 17 8 34 17 37 20 9 11 50 31 62 31 14 0 50 -54 88 -128 20
-42 21 -44 3 -58 -10 -7 -24 -14 -30 -14 -7 0 -13 -4 -13 -10 0 -5 -7 -10 -15
-10 -8 0 -15 -4 -15 -8 0 -5 -16 -14 -35 -22 -19 -8 -35 -16 -35 -19 0 -4 -13
-12 -30 -19 -48 -22 -40 -56 23 -91 20 -11 54 -31 75 -43 20 -12 49 -28 65
-35 34 -18 34 -28 -2 -82 -16 -24 -37 -61 -47 -82 -15 -34 -44 -54 -44 -31 0
5 -16 14 -35 22 -19 8 -35 17 -35 21 0 4 -8 9 -17 12 -10 4 -37 18 -61 32 -46
27 -77 32 -88 13 -4 -6 -8 -46 -9 -87 -1 -42 -2 -100 -3 -128 l-2 -53 -99 0
c-86 0 -100 2 -105 18 -2 9 -3 67 -1 127 3 114 -3 135 -36 135 -17 0 -56 -17
-69 -30 -5 -5 -75 -43 -117 -64 -13 -6 -23 -14 -23 -18 0 -5 -6 -8 -13 -8 -8
0 -22 17 -31 39 -10 21 -31 58 -47 82 -36 54 -36 64 -1 81 39 20 76 42 82 49
3 3 22 13 42 22 20 10 44 24 53 33 19 20 20 54 0 54 -8 0 -15 4 -15 9 0 5 -15
16 -32 25 -28 14 -103 57 -146 84 -11 7 -10 17 8 53 38 75 74 129 88 129 12 0
53 -20 62 -31 3 -3 20 -12 38 -20 17 -8 32 -16 32 -20 0 -3 16 -11 35 -19 19
-8 35 -17 35 -22 0 -16 29 -8 43 12 10 14 13 50 11 140 l-3 120 109 0 110 0
-2 -117z"/>
<path d="M625 820 c-3 -5 -15 -10 -26 -10 -20 0 -26 -15 -9 -25 5 -3 7 -12 4
-20 -10 -25 6 -37 24 -18 24 26 72 26 94 1 28 -32 24 -90 -8 -117 -34 -30 -52
-15 -35 28 17 40 6 71 -24 71 -18 0 -26 -7 -31 -27 -5 -17 -3 -28 4 -31 20 -6
15 -72 -5 -79 -23 -8 -53 -42 -53 -59 0 -28 23 -60 51 -73 37 -16 38 -48 2
-76 -21 -17 -25 -27 -19 -48 3 -15 13 -27 20 -27 19 0 28 -28 16 -50 -13 -24
-13 -30 3 -30 6 0 20 12 30 26 17 23 17 27 3 49 -22 34 -20 52 9 81 29 29 26
56 -7 88 -15 14 -18 26 -14 49 3 16 6 35 6 41 0 7 17 20 38 29 71 31 94 132
40 175 -12 9 -31 27 -43 40 -23 23 -59 29 -70 12z m5 -290 c0 -42 -9 -50 -30
-25 -11 13 -11 20 0 40 19 36 30 31 30 -15z m40 -110 c0 -5 -4 -10 -10 -10 -5
0 -10 5 -10 10 0 6 5 10 10 10 6 0 10 -4 10 -10z m-30 -76 c0 -8 -5 -12 -10
-9 -6 4 -8 11 -5 16 9 14 15 11 15 -7z"/>
</g>
</svg>
